<svg height="512.00003pt" viewBox="0 0 512.00003 512.00003" width="512.00003pt" xmlns="http://www.w3.org/2000/svg"><path d="m256 0c-141.386719 0-256 114.613281-256 256s114.613281 256 256 256 256-114.613281 256-256c-.160156-141.320312-114.679688-255.839844-256-256zm0 494.933594c-131.960938 0-238.933594-106.972656-238.933594-238.933594s106.972656-238.933594 238.933594-238.933594 238.933594 106.972656 238.933594 238.933594c-.152344 131.898438-107.035156 238.78125-238.933594 238.933594zm0 0"/><path d="m256 42.667969c-117.820312 0-213.332031 95.511719-213.332031 213.332031s95.511719 213.332031 213.332031 213.332031 213.332031-95.511719 213.332031-213.332031c-.128906-117.765625-95.566406-213.203125-213.332031-213.332031zm125.140625 62.292969c-11.054687-1.6875-22.222656-2.542969-33.40625-2.5625-27.167969-.058594-54.113281 4.921874-79.464844 14.6875-.21875.066406-.441406.136718-.65625.222656l-.210937.09375h-.085938c-21.09375 8.191406-40.804687 19.5625-58.453125 33.722656-.28125.179688-.554687.382812-.855469.597656-20.773437 16.90625-38.378906 37.367188-51.992187 60.433594-.402344-36.636719 8.996094-72.714844 27.21875-104.5 2.476563-4.265625 5.121094-8.53125 7.777344-12.527344 7.808593-11.441406 16.773437-22.054687 26.75-31.667968 57.929687-11.507813 117.960937 3.742187 163.378906 41.5zm-67.601563 73.242187c19.738282 26.320313 32.867188 56.996094 38.289063 89.445313-12.976563 30.160156-32.933594 56.804687-58.222656 77.746093-32.617188 3.863281-65.6875-.074219-96.484375-11.484375-19.804688-26.324218-32.949219-57.046875-38.316406-89.550781 12.964843-30.132813 32.871093-56.773437 58.09375-77.746094 32.675781-3.898437 65.808593.0625 96.640624 11.554688zm-126.847656-105.789063c-3.414062 4.265626-6.722656 8.679688-9.828125 13.253907-2.917969 4.410156-5.734375 8.90625-8.382812 13.496093-39.273438 68.414063-39.523438 152.476563-.664063 221.125-48.519531-27.21875-83.832031-73.058593-97.773437-126.914062 18.894531-55.703125 61.671875-100.058594 116.648437-120.960938zm-124.398437 152.0625c22.921875 57.03125 68.4375 102.023438 125.730469 124.28125h.050781c.207031.085938.402343.1875.605469.265626 25.101562 9.605468 51.722656 14.632812 78.601562 14.839843-9.738281 5.78125-19.933594 10.761719-30.480469 14.890625-23.597656 9.121094-48.683593 13.792969-73.984375 13.78125-5.34375 0-10.128906-.179687-14.738281-.574218-13.417969-1-26.710937-3.285157-39.695313-6.824219-38.632812-43.957031-55.542968-102.90625-46.089843-160.660157zm68.695312 182.71875c5.230469.75 10.476563 1.390626 15.742188 1.78125 4.992187.417969 10.238281.625 16.078125.625 27.410156.019532 54.585937-5.039062 80.152344-14.917968 46.835937-18.132813 86.171874-51.5625 111.617187-94.863282.699219 56.070313-21.722656 109.953126-61.996094 148.972657-57.375 10.960937-116.644531-4.300781-161.59375-41.597657zm192.1875 33.21875c56.769531-71.140624 64.496094-169.6875 19.503907-248.804687 9.621093 5.371094 18.789062 11.511719 27.417968 18.363281.242188.253906.503906.496094.777344.714844 19.71875 15.8125 36.304688 35.171875 48.90625 57.078125 2.480469 4.269531 4.804688 8.792969 6.980469 13.058594 6.179687 12.804687 11.011719 26.222656 14.410156 40.027343-19.539063 55.449219-62.804687 99.289063-117.988281 119.5625zm126.078125-150.441406c-2.210937-5.703125-4.566406-11.324218-7.226562-16.761718-2.371094-4.660157-4.832032-9.386719-7.457032-13.960938-13.484374-23.441406-31.175781-44.195312-52.191406-61.21875l-.085937-.058594-.066407-.058594c-.203124-.207031-.417968-.402343-.640624-.582031-17.957032-14.460937-38.070313-26.019531-59.605469-34.25-25.113281-9.679687-51.765625-14.742187-78.679688-14.945312 9.535157-5.695313 19.527344-10.59375 29.867188-14.640625.238281-.066406.472656-.148438.699219-.238282 41.625-16.097656 87.375-18.125 130.261718-5.777343 38.875 44.546875 55.472656 104.308593 45.140625 162.523437zm0 0"/></svg>